<?xml version="1.0" encoding="utf-8"?>
<!-- Svg Vector Icons : http://www.onlinewebfonts.com/icon -->
<!DOCTYPE svg PUBLIC "-//W3C//DTD SVG 1.1//EN" "http://www.w3.org/Graphics/SVG/1.1/DTD/svg11.dtd">
<svg version="1.1" xmlns="http://www.w3.org/2000/svg" xmlns:xlink="http://www.w3.org/1999/xlink" x="0px" y="0px" viewBox="0 0 256 256" enable-background="new 0 0 256 256" xml:space="preserve">
<metadata> Svg Vector Icons : http://www.onlinewebfonts.com/icon </metadata>
<g><g><path fill="#000000" d="M128,10C62.8,10,10,62.8,10,128c0,65.2,52.8,118,118,118c65.2,0,118-52.8,118-118C246,62.8,193.2,10,128,10z M128,222.4c-52.1,0-94.4-42.3-94.4-94.4S75.9,33.6,128,33.6s94.4,42.3,94.4,94.4S180.1,222.4,128,222.4z M128,80.8c-26.1,0-47.2,21.1-47.2,47.2c0,26.1,21.1,47.2,47.2,47.2c26.1,0,47.2-21.1,47.2-47.2C175.2,101.9,154.1,80.8,128,80.8z"/></g></g>
</svg>