<?xml version="1.0" encoding="UTF-8"?>
<svg width="16px" height="15px" viewBox="0 0 16 15" version="1.1" xmlns="http://www.w3.org/2000/svg" xmlns:xlink="http://www.w3.org/1999/xlink">
    <title>Path</title>
    <g id="Symbols" stroke="none" stroke-width="1" fill="none" fill-rule="evenodd">
        <g id="ico/menu/fav" transform="translate(-4.000000, -5.000000)" fill="#5D6C76">
            <path d="M18.1637288,11.4935295 C19.2749391,10.236095 19.2791778,8.39458617 18.1738507,7.13246766 C17.0362165,5.83345913 15.0231626,5.64129746 13.6405053,6.7038213 C13.2808056,6.9802444 12.9641919,7.24060522 12.689873,7.4853334 L11.9877726,8.11169839 L11.3198445,7.44901433 C11.0945297,7.2254685 10.837669,6.99622273 10.5487645,6.76116248 C9.13987262,5.6148141 7.02981145,5.78294595 5.836963,7.13304774 C4.72240802,8.39453464 4.72085495,10.2425467 5.83325742,11.5057519 L11.9822929,18.4883811 L18.1637288,11.4935295 Z M13.0311671,5.91091087 C14.8310096,4.52779475 17.4401491,4.77685484 18.9261398,6.47363453 C20.3628885,8.11418708 20.3573478,10.5213832 18.9130612,12.1557236 L11.9809782,20 L5.08277432,12.1666416 C3.63726465,10.5251715 3.63929426,8.11012439 5.087561,6.47093247 C6.63637588,4.71793714 9.35574072,4.50125816 11.1798955,5.98548618 C11.4924921,6.239823 11.7739189,6.49085081 12.0241591,6.73912632 C12.3185596,6.47648272 12.6541086,6.20067396 13.0311671,5.91091087 Z" id="Path"></path>
        </g>
    </g>
</svg>