<?xml version="1.0" encoding="UTF-8"?>
<svg width="20px" height="20px" viewBox="0 0 20 20" version="1.1" xmlns="http://www.w3.org/2000/svg" xmlns:xlink="http://www.w3.org/1999/xlink">
    <title>Path</title>
    <g id="Symbols" stroke="none" stroke-width="1" fill="none" fill-rule="evenodd">
        <g id="ico/menu/history" transform="translate(-2.000000, -2.000000)" fill="#5D6C76">
            <path d="M13,6 L12,6 L12,2 L12.4802742,2 L13,2.04698181 C18.0533227,2.55109967 22,6.8146519 22,12 C22,17.5228475 17.5228475,22 12,22 C6.4771525,22 2,17.5228475 2,12 C2,10.1161501 2.52091684,8.35396676 3.4265658,6.84963484 L3.4265658,6.84963484 L4.2832915,7.36540714 C3.44775807,8.75327338 3,10.3425812 3,12 C3,16.9705627 7.02943725,21 12,21 C16.9705627,21 21,16.9705627 21,12 C21,7.36744635 17.4999505,3.55237307 13,3.05492878 L13,3.05492878 L13,6 Z M7.18824878,8.62077905 L11.4628677,11.1563532 C11.6180224,11.0573635 11.8023122,11 12,11 C12.5522847,11 13,11.4477153 13,12 C13,12.5522847 12.5522847,13 12,13 C11.4636989,13 11.0260021,12.5778243 11.0011167,12.0476798 L6.67796216,9.48078345 L7.18824878,8.62077905 Z" id="Path"></path>
        </g>
    </g>
</svg>