<?xml version="1.0" encoding="UTF-8"?>
<svg width="18px" height="20px" viewBox="0 0 18 20" version="1.1" xmlns="http://www.w3.org/2000/svg" xmlns:xlink="http://www.w3.org/1999/xlink">
    <title>Combined Shape</title>
    <g id="Symbols" stroke="none" stroke-width="1" fill="none" fill-rule="evenodd">
        <g id="ico/menu/calendar" transform="translate(-3.000000, -2.000000)" fill="#5D6C76">
            <path d="M9,2 L9,4 L15,4 L15,2 L16,2 L16,4 L19,4 C20.1045695,4 21,4.8954305 21,6 L21,20 C21,21.1045695 20.1045695,22 19,22 L5,22 C3.8954305,22 3,21.1045695 3,20 L3,6 C3,4.8954305 3.8954305,4 5,4 L8,4 L8,2 L9,2 Z M20,11 L4,11 L4,20 C4,20.5522847 4.44771525,21 5,21 L19,21 C19.5522847,21 20,20.5522847 20,20 L20,11 Z M15,5 L9,5 L9,7 L8,7 L8,5 L5,5 C4.44771525,5 4,5.44771525 4,6 L4,10 L20,10 L20,6 C20,5.44771525 19.5522847,5 19,5 L16,5 L16,7 L15,7 L15,5 Z" id="Combined-Shape"></path>
        </g>
    </g>
</svg>