<?xml version="1.0" encoding="UTF-8"?>
<svg width="32px" height="32px" viewBox="0 0 32 32" version="1.1" xmlns="http://www.w3.org/2000/svg" xmlns:xlink="http://www.w3.org/1999/xlink">
    <title>Combined Shape</title>
    <defs>
        <path d="M20,4 C28.836556,4 36,11.163444 36,20 C36,28.836556 28.836556,36 20,36 C11.163444,36 4,28.836556 4,20 C4,11.163444 11.163444,4 20,4 Z M20,6 C12.2680135,6 6,12.2680135 6,20 C6,27.7319865 12.2680135,34 20,34 C27.7319865,34 34,27.7319865 34,20 C34,12.2680135 27.7319865,6 20,6 Z M18,15 L18,25 L16,25 L16,15 L18,15 Z M24,15 L24,25 L22,25 L22,15 L24,15 Z" id="path-1"></path>
    </defs>
    <g id="Symbols" stroke="none" stroke-width="1" fill="none" fill-rule="evenodd">
        <g id="ico/playback/pause" transform="translate(-4.000000, -4.000000)">
            <mask id="mask-2" fill="white">
                <use xlink:href="#path-1"></use>
            </mask>
            <use id="Combined-Shape" fill="#FF0039" xlink:href="#path-1"></use>
        </g>
    </g>
</svg>