<?xml version="1.0" encoding="UTF-8"?>
<svg width="23px" height="18px" viewBox="0 0 23 18" version="1.1" xmlns="http://www.w3.org/2000/svg" xmlns:xlink="http://www.w3.org/1999/xlink">
    <title>Combined Shape</title>
    <g id="Symbols" stroke="none" stroke-width="1" fill="none" fill-rule="evenodd">
        <g id="ico/menu/playlist" transform="translate(0.000000, -3.000000)" fill="#5D6C76">
            <path d="M14,10.9436035 L23,15.9718018 L14,21 L14,10.9436035 Z M15,12.647776 L15,19.2958275 L20.9496922,15.9718018 L15,12.647776 Z M-1.0658141e-14,15 L11,15 L11,16 L-1.0658141e-14,16 L-1.0658141e-14,15 Z M-1.0658141e-14,11 L11,11 L11,12 L-1.0658141e-14,12 L-1.0658141e-14,11 Z M-8.8817842e-15,7 L15,7 L15,8 L-1.0658141e-14,8 L-8.8817842e-15,7 Z M15,3 L15,4 L-8.8817842e-15,4 L-8.8817842e-15,3 L15,3 Z" id="Combined-Shape"></path>
        </g>
    </g>
</svg>