<?xml version="1.0" encoding="UTF-8"?>
<svg width="25px" height="25px" viewBox="0 0 25 25" version="1.1" xmlns="http://www.w3.org/2000/svg" xmlns:xlink="http://www.w3.org/1999/xlink">
    <title>Combined Shape</title>
    <g id="Symbols" stroke="none" stroke-width="1" fill="none" fill-rule="evenodd">
        <g id="ico/menu/station" fill="#5D6C76">
            <path d="M12.5,17.5 C14.709139,17.5 16.5,19.290861 16.5,21.5 L16.5,24.5 L8.5,24.5 L8.5,21.5 C8.5,19.290861 10.290861,17.5 12.5,17.5 Z M12.5,18.5 C10.8431458,18.5 9.5,19.8431458 9.5,21.5 L9.5,23.5 L15.5,23.5 L15.5,21.5 C15.5,19.8431458 14.1568542,18.5 12.5,18.5 Z M12.5,0 C19.4035594,0 25,5.59644063 25,12.5 C25,15.6137032 23.8565863,18.5508786 21.8238795,20.8257569 L21.0781968,20.1594556 C22.9486638,18.066146 24,15.3654972 24,12.5 C24,6.14872538 18.8512746,1 12.5,1 C6.14872538,1 1,6.14872538 1,12.5 C1,15.3668113 2.0523061,18.0686067 3.92432071,20.1622721 L3.17885561,20.8288168 C1.14446815,18.5535532 0,15.6151318 0,12.5 C0,5.59644063 5.59644063,0 12.5,0 Z M12.5,4 C17.1944204,4 21,7.80557963 21,12.5 C21,14.5442194 20.2752677,16.4779083 18.9779931,18.0034842 L18.2161857,17.3556807 C19.3611056,16.0092716 20,14.3046105 20,12.5 C20,8.35786438 16.6421356,5 12.5,5 C8.35786438,5 5,8.35786438 5,12.5 C5,14.300263 5.6358031,16.0011039 6.7757132,17.3461379 L6.01283182,17.9926763 C4.72122732,16.468651 4,14.5392911 4,12.5 C4,7.80557963 7.80557963,4 12.5,4 Z M12.5,9 C14.4329966,9 16,10.5670034 16,12.5 C16,14.4329966 14.4329966,16 12.5,16 C10.5670034,16 9,14.4329966 9,12.5 C9,10.5670034 10.5670034,9 12.5,9 Z M12.5,10 C11.1192881,10 10,11.1192881 10,12.5 C10,13.8807119 11.1192881,15 12.5,15 C13.8807119,15 15,13.8807119 15,12.5 C15,11.1192881 13.8807119,10 12.5,10 Z" id="Combined-Shape"></path>
        </g>
    </g>
</svg>