<?xml version="1.0" encoding="UTF-8"?>
<svg width="20px" height="20px" viewBox="0 0 20 20" version="1.1" xmlns="http://www.w3.org/2000/svg" xmlns:xlink="http://www.w3.org/1999/xlink">
    <title>Combined Shape</title>
    <g id="Symbols" stroke="none" stroke-width="1" fill="none" fill-rule="evenodd">
        <g id="ico/menu/search" transform="translate(-2.000000, -2.000000)" fill="#5D6C76">
            <path d="M10.5,2 C15.1944204,2 19,5.80557963 19,10.5 C19,12.6709585 18.1861209,14.6518253 16.8468364,16.1541268 L21.3381725,20.6464466 L20.6310658,21.3535534 L16.1390945,16.8602058 C14.6386232,18.1915353 12.6637251,19 10.5,19 C5.80557963,19 2,15.1944204 2,10.5 C2,5.80557963 5.80557963,2 10.5,2 Z M10.5,3 C6.35786438,3 3,6.35786438 3,10.5 C3,14.6421356 6.35786438,18 10.5,18 C14.6421356,18 18,14.6421356 18,10.5 C18,6.35786438 14.6421356,3 10.5,3 Z" id="Combined-Shape"></path>
        </g>
    </g>
</svg>