<?xml version="1.0" encoding="UTF-8"?>
<svg width="22px" height="16px" viewBox="0 0 22 16" version="1.1" xmlns="http://www.w3.org/2000/svg" xmlns:xlink="http://www.w3.org/1999/xlink">
    <title>ico/menu/charts copy 3</title>
    <defs>
        <path d="M18,4 L18,20 L6,20 L6,4 L18,4 Z M17,5 L7,5 L7,19 L17,19 L17,5 Z M21,7 L21,17 L20,17 L20,7 L21,7 Z M4,7 L4,17 L3,17 L3,7 L4,7 Z M2,9 L2,15 L1,15 L1,9 L2,9 Z M23,9 L23,15 L22,15 L22,9 L23,9 Z" id="path-1"></path>
    </defs>
    <g id="Symbols" stroke="none" stroke-width="1" fill="none" fill-rule="evenodd">
        <g id="dark/navigation/desktop/streaming/full" transform="translate(-25.000000, -143.000000)">
            <g id="sections" transform="translate(0.000000, 100.000000)">
                <g id="sectionElements" transform="translate(0.000000, 34.000000)">
                    <g id="Group" transform="translate(24.000000, 5.000000)">
                        <mask id="mask-2" fill="white">
                            <use xlink:href="#path-1"></use>
                        </mask>
                        <use id="Combined-Shape" fill="#FF0039" xlink:href="#path-1"></use>
                    </g>
                </g>
            </g>
        </g>
    </g>
</svg>